<?xml version="1.0" standalone="no"?>
<!DOCTYPE svg PUBLIC "-//W3C//DTD SVG 20010904//EN"
 "http://www.w3.org/TR/2001/REC-SVG-20010904/DTD/svg10.dtd">
<svg version="1.0" xmlns="http://www.w3.org/2000/svg"
 width="866.000000pt" height="586.000000pt" viewBox="0 0 866.000000 586.000000"
 preserveAspectRatio="xMidYMid meet">

<g transform="translate(0.000000,586.000000) scale(0.100000,-0.100000)"
fill="#000000" stroke="none">
<path d="M100 2935 c0 -1592 4 -2895 8 -2895 4 0 235 77 513 171 277 94 1501
508 2719 921 1218 412 2640 894 3160 1070 520 176 1219 412 1553 525 334 113
606 208 604 210 -3 2 -236 82 -518 177 -283 96 -1925 652 -3649 1236 -4134
1400 -4370 1480 -4382 1480 -5 0 -8 -1303 -8 -2895z m2450 1952 l655 -223 3
-527 2 -527 1546 0 1547 0 998 -337 c588 -199 995 -341 989 -347 -5 -5 -442
-155 -972 -335 l-963 -326 -1572 -3 -1573 -2 0 -524 0 -524 -222 -75 c-123
-41 -422 -143 -666 -226 -243 -83 -444 -151 -447 -151 -3 0 -5 338 -5 750 l0
750 -835 0 -835 0 0 670 0 670 835 0 835 0 0 755 c0 597 3 755 13 755 6 0 307
-101 667 -223z"/>
</g>
</svg>
